# xmcd CD database file
#
# Track frame offsets:
#	150
#	22173
#	57975
#	89443
#	123472
#	147531
#	169335
#	203775
#	227945
#	252950
#	271790
#	291101
#
# Disc length: 4365 seconds
#
# Revision: 1
# Processed by: cddbd v1.4PL0 Copyright (c) Steve Scherf et al.
# Submitted via: CDex 1.50
#
DISCID=b9110b0c
DTITLE=Inside out - Idiosyncrasy
DYEAR=1998
DGENRE=Jazz
TTITLE0=Lapis Infernalis
TTITLE1=Thank you Steve
TTITLE2=Mickouic in the trappe
TTITLE3=Idiosyncrasy
TTITLE4=Dark
TTITLE5=Missing pellos
TTITLE6=Outside in
TTITLE7=Paris blues
TTITLE8=Like a cat in the snow
TTITLE9=Zen-on
TTITLE10=No man's land
TTITLE11=Meldi
EXTD=YEAR: 1998
EXTT0=
EXTT1=
EXTT2=
EXTT3=
EXTT4=
EXTT5=
EXTT6=
EXTT7=
EXTT8=
EXTT9=
EXTT10=
EXTT11=
PLAYORDER=
